<?xml version="1.0" encoding="utf-8"?>
<svg id="master-artboard" viewBox="0 0 3000 2000" version="1.1" xmlns="http://www.w3.org/2000/svg" x="0px" y="0px" width="3000px" height="2000px" style="enable-background:new 0 0 3000 2000;">

<path d="M 0 0 H 3000 V 2000 H 0 V 0 Z" class="st0" style="fill: rgb(156, 174, 200);" transform="matrix(1, 0, 0, 1, 0, 7.275957614183426e-12)"/><g transform="matrix(1, 0, 0, 1, 0, 1.4551915228366852e-11)">
			<path d="M 2829 993.900024 A 1329 724.700012 0 0 1 1500 1718.600037 A 1329 724.700012 0 0 1 171 993.900024 A 1329 724.700012 0 0 1 1500 269.200012 A 1329 724.700012 0 0 1 2829 993.900024 Z" class="st1" style="fill: rgb(167, 185, 206);"/>
			<path d="M 2684.5 993.900024 A 1184.5 591.700012 0 0 1 1500 1585.600037 A 1184.5 591.700012 0 0 1 315.5 993.900024 A 1184.5 591.700012 0 0 1 1500 402.200012 A 1184.5 591.700012 0 0 1 2684.5 993.900024 Z" class="st2" style="fill: rgb(174, 193, 211);"/>
			<path d="M 2506.900024 993.900024 A 1006.900024 450.5 0 0 1 1500 1444.400024 A 1006.900024 450.5 0 0 1 493.099976 993.900024 A 1006.900024 450.5 0 0 1 1500 543.400024 A 1006.900024 450.5 0 0 1 2506.900024 993.900024 Z" class="st3" style="fill: rgb(185, 204, 219);"/>
		</g><path class="st4" d="M2211.1,1169.7c-49.4,0-90.8,34.3-101.7,80.3c-5.2,2.2-10.3,5-15.1,8.3l-179,124.1l-187.3-240.9&#10;&#9;&#9;&#9;c-6.3-8.1-13.8-14.7-22-19.8c-7.8-7.2-18.1-11.5-29.5-11.5h-1.1c-9.2-1.5-18.7-1.6-28,0h-94.7v-4.4c0-16.7-16.5-28.3-32.2-22.7&#10;&#9;&#9;&#9;l-0.4,0.1l0.2-44.3c41-24.1,72.2-66.7,91.8-115.3c3.7-0.2,6.6-3.3,6.6-7v-2.2c2.8,0.6,5.6,1,8.6,1.2c33.5,2.2,62.5-23.1,64.7-56.6&#10;&#9;&#9;&#9;c2-30.1-18.3-56.6-46.8-63.2l19-79.1c5.4-22.7-2.4-46.5-20.4-61.4l-17.2-14.3c30.7-24,24.4-95,24.4-95&#10;&#9;&#9;&#9;c-70.4,46.9-114.5-12-256.4-12.7c-122.2-0.6-135.2,80.2-136.5,102.5l-0.1,0l-21.4,17.5c-18.1,14.8-26.2,38.5-21,61.2l18.5,80.7&#10;&#9;&#9;&#9;c-30,5.5-51.7,32.7-49.7,63.8c2,29.9,25.3,53.4,54.2,56.4v16.5c0,35,28.4,63.4,63.4,63.4h5.7c16.2,19.8,35.3,36.2,57,47.6&#10;&#9;&#9;&#9;l-0.2,39.3c-14.7-3.1-29.1,8.1-29.1,23.6v4.4h-102.9c-29.6-5-60.9,6-80.6,31.4l-187.3,240.9l-179-124.1c-4.8-3.4-9.9-6.1-15.1-8.3&#10;&#9;&#9;&#9;c-10.9-46.1-52.3-80.3-101.7-80.3c-57.7,0-104.5,46.8-104.5,104.5c0,57.7,46.8,104.5,104.5,104.5c0.6,0,1.1,0,1.7,0&#10;&#9;&#9;&#9;c5.2,6.9,11.6,13,19,18.2l243.6,168.9c14.8,10.2,31.7,15.1,48.4,15c15,0.2,30-3.7,43.1-11.2c10.2-5.4,19.4-13,26.9-22.7l116.5-151&#10;&#9;&#9;&#9;v368.4c0,24.1,19.5,43.5,43.5,43.5h464.9c24.1,0,43.5-19.5,43.5-43.5v-358.4l62.1,79.8l47.6,61.2c0.9,1.2,1.9,2.3,2.8,3.5&#10;&#9;&#9;&#9;c0.2,0.3,0.5,0.5,0.7,0.8c0.8,0.8,1.5,1.7,2.3,2.5c0.2,0.2,0.5,0.5,0.7,0.7c0.8,0.8,1.6,1.6,2.4,2.4c0.2,0.2,0.4,0.4,0.6,0.6&#10;&#9;&#9;&#9;c0.9,0.8,1.8,1.6,2.7,2.4c0.2,0.1,0.3,0.2,0.5,0.4c1,0.8,2,1.6,3,2.4c0.1,0.1,0.2,0.1,0.3,0.2c1.1,0.8,2.2,1.6,3.3,2.4&#10;&#9;&#9;&#9;c0,0,0.1,0.1,0.1,0.1c1.2,0.8,2.4,1.5,3.6,2.3c0,0,0,0,0,0c1.2,0.7,2.5,1.4,3.8,2.1c0.6,0.3,1.2,0.6,1.7,1&#10;&#9;&#9;&#9;c0.5,0.2,0.9,0.5,1.4,0.7c0.6,0.3,1.2,0.6,1.8,0.9c0.5,0.2,0.9,0.5,1.4,0.7c1,0.5,2,0.9,3,1.3c0.5,0.2,1,0.4,1.5,0.6&#10;&#9;&#9;&#9;c0.6,0.2,1.2,0.5,1.8,0.7c0.5,0.2,1,0.4,1.5,0.5c0.6,0.2,1.2,0.4,1.8,0.6c0.6,0.2,1.3,0.4,1.9,0.6c0.9,0.3,1.8,0.5,2.7,0.8&#10;&#9;&#9;&#9;c0.6,0.2,1.1,0.3,1.7,0.4c0.6,0.1,1.2,0.3,1.8,0.4c0.6,0.1,1.2,0.3,1.8,0.4c0.5,0.1,1.1,0.2,1.6,0.3c1,0.2,2.1,0.3,3.1,0.5&#10;&#9;&#9;&#9;c0.5,0.1,1.1,0.1,1.6,0.2c0.6,0.1,1.3,0.1,1.9,0.2c0.5,0.1,1.1,0.1,1.6,0.1c0.8,0.1,1.7,0.1,2.5,0.1c0.6,0,1.2,0,1.8,0.1&#10;&#9;&#9;&#9;c0.8,0,1.7,0,2.5,0c0.5,0,1,0,1.5,0c0.8,0,1.5,0,2.3-0.1c0.4,0,0.9,0,1.3-0.1c1.1-0.1,2.2-0.2,3.4-0.3c0.4,0,0.8-0.1,1.2-0.1&#10;&#9;&#9;&#9;c0.8-0.1,1.7-0.2,2.5-0.3c0.4-0.1,0.9-0.1,1.3-0.2c0.9-0.2,1.9-0.3,2.8-0.5c0.3-0.1,0.5-0.1,0.8-0.1c1.2-0.2,2.3-0.5,3.4-0.8&#10;&#9;&#9;&#9;c0.4-0.1,0.7-0.2,1.1-0.3c0.9-0.2,1.7-0.5,2.6-0.7c0.4-0.1,0.7-0.2,1.1-0.3c1.2-0.4,2.3-0.8,3.4-1.2c0.2-0.1,0.4-0.2,0.6-0.2&#10;&#9;&#9;&#9;c1-0.4,1.9-0.8,2.9-1.2c0.4-0.1,0.7-0.3,1.1-0.5c0.9-0.4,1.8-0.8,2.7-1.3c0.2-0.1,0.5-0.2,0.7-0.3c1.1-0.6,2.2-1.1,3.3-1.7&#10;&#9;&#9;&#9;c0.3-0.2,0.6-0.3,0.8-0.5c0.9-0.5,1.7-1,2.6-1.5c0.3-0.2,0.6-0.4,0.9-0.6c1.1-0.7,2.2-1.4,3.2-2.1c0,0,0,0,0,0l32.4-22.5&#10;&#9;&#9;&#9;l211.2-146.5c1.1-0.7,2.1-1.5,3.1-2.3c0.2-0.2,0.4-0.3,0.6-0.5c1-0.8,1.9-1.5,2.9-2.3c0.2-0.1,0.3-0.3,0.5-0.5&#10;&#9;&#9;&#9;c0.9-0.7,1.7-1.5,2.5-2.3c0.1-0.1,0.3-0.3,0.4-0.4c0.9-0.8,1.7-1.7,2.6-2.6c0.2-0.2,0.4-0.4,0.6-0.7c0.8-0.9,1.6-1.7,2.4-2.6&#10;&#9;&#9;&#9;c0.1-0.2,0.3-0.3,0.4-0.5c0.7-0.8,1.3-1.6,2-2.4c0.2-0.3,0.4-0.5,0.6-0.8c0.1-0.2,0.3-0.4,0.4-0.5c0.6,0,1.1,0,1.7,0&#10;&#9;&#9;&#9;c57.7,0,104.5-46.8,104.5-104.5C2315.6,1216.4,2268.8,1169.7,2211.1,1169.7z M1251.6,931.9v-16.5c2.1-0.2,4.1-0.5,6.1-1v2.2&#10;&#9;&#9;&#9;c0,3.9,3.1,7,7,7c0.5,0,1-0.1,1.5-0.2c8.4,21,18.9,40.9,31.4,58.6C1271.9,979.9,1251.6,958.2,1251.6,931.9z" style="fill: rgb(122, 119, 153);" transform="matrix(1, 0, 0, 1, 0, 1.4551915228366852e-11)"/><path d="M 1419.5 969.599976 H 1585.600006 V 1125.199982 H 1419.5 V 969.599976 Z" transform="matrix(0.004857244435697794, -1, 1, 0.004857244435697794, 447.91071891518556, 2544.80354263795)" class="st5" style="fill: rgb(221, 138, 146);"/><path class="st6" d="M1500.5,609.1c-151.6-0.7-196.9,81.4-197.4,201.1c-0.6,119.8,72.1,261.2,195.2,257.7&#10;&#9;&#9;&#9;&#9;c123.1,4.7,197.1-136.1,197.7-255.8C1696.5,692.4,1652.1,609.8,1500.5,609.1z" style="fill: rgb(246, 167, 173);" transform="matrix(1, 0, 0, 1, 0, 2.1827872842550278e-11)"/><path d="M 1729.800026 851.799988 A 51.400002 51.400002 0 0 1 1678.400024 903.199989 A 51.400002 51.400002 0 0 1 1627.000023 851.799988 A 51.400002 51.400002 0 0 1 1678.400024 800.399986 A 51.400002 51.400002 0 0 1 1729.800026 851.799988 Z" transform="matrix(0.004857104737311602, -1, 1, 0.004857104737311602, 818.4862304474773, 2525.9969014524686)" class="st6" style="fill: rgb(246, 167, 173);"/><path d="M 1356.599953 863.200012 A 51.400002 51.400002 0 0 1 1305.199951 914.600014 A 51.400002 51.400002 0 0 1 1253.79995 863.200012 A 51.400002 51.400002 0 0 1 1305.199951 811.800011 A 51.400002 51.400002 0 0 1 1356.599953 863.200012 Z" transform="matrix(0.9978000521659852, -0.06611409038305283, 0.06611409038305283, 0.9978000521659852, -54.21429986400302, 88.18210101672594)" class="st6" style="fill: rgb(246, 167, 173);"/><path class="st7" d="M1703.8,663.5l-17.2-14.3c30.7-24,24.4-95,24.4-95c-70.4,46.9-114.5-12-256.4-12.7&#10;&#9;&#9;&#9;&#9;c-122.2-0.6-135.2,80.2-136.5,102.5l-0.1,0l-21.4,17.5c-18.1,14.8-26.2,38.5-21,61.2l43.4,188.9l41.9-201.1&#10;&#9;&#9;&#9;&#9;c2.9-13.9,15.8-23.3,29.9-21.7l64.6,7c29.7,3.2,59.6,3.4,89.3,0.4l64.6-6.4c14.1-1.4,26.9,8.1,29.7,22l39.9,201.5l45.3-188.5&#10;&#9;&#9;&#9;&#9;C1729.6,702.3,1721.8,678.5,1703.8,663.5z" style="fill: rgb(246, 237, 202);" transform="matrix(1, 0, 0, 1, 0, 2.1827872842550278e-11)"/><path class="st8" d="M1736.6,1118.4h-464.9c-24.1,0-43.5,19.5-43.5,43.5v610.6c0,24.1,19.5,43.5,43.5,43.5h464.9&#10;&#9;&#9;&#9;&#9;c24.1,0,43.5-19.5,43.5-43.5V1162C1780.1,1137.9,1760.6,1118.4,1736.6,1118.4z" style="fill: rgb(255, 255, 255);" transform="matrix(1, 0, 0, 1, 0, 2.1827872842550278e-11)"/><path class="st8" d="M1330.2,1135L1330.2,1135c-36.7-28.6-89.7-22-118.3,14.8l-234.8,301.9c-28.6,36.7-22,89.7,14.8,118.3h0&#10;&#9;&#9;&#9;&#9;c36.7,28.6,89.7,22,118.3-14.8l234.8-301.9C1373.6,1216.6,1367,1163.6,1330.2,1135z" style="fill: rgb(255, 255, 255);" transform="matrix(1, 0, 0, 1, 0, 2.1827872842550278e-11)"/><path class="st8" d="M1089.3,1435.5l-243.6-168.9c-38.3-26.5-90.8-17-117.3,21.2l0,0c-26.5,38.3-17,90.8,21.2,117.3l243.6,168.9&#10;&#9;&#9;&#9;&#9;c38.3,26.5,90.8,17,117.3-21.2v0C1137,1514.6,1127.5,1462,1089.3,1435.5z" style="fill: rgb(255, 255, 255);" transform="matrix(1, 0, 0, 1, 0, 2.1827872842550278e-11)"/><path class="st8" d="M1788.1,1149.8c-28.6-36.7-81.5-43.4-118.3-14.8l0,0c-36.7,28.6-43.4,81.5-14.8,118.3l234.8,301.9&#10;&#9;&#9;&#9;&#9;c28.6,36.7,81.5,43.4,118.3,14.8l0,0c36.7-28.6,43.4-81.5,14.8-118.3L1788.1,1149.8z" style="fill: rgb(255, 255, 255);" transform="matrix(1, 0, 0, 1, 0, 2.1827872842550278e-11)"/><path class="st8" d="M2271.7,1287.8c-26.5-38.3-79-47.8-117.3-21.2l-243.6,168.9c-38.3,26.5-47.8,79-21.2,117.3v0&#10;&#9;&#9;&#9;&#9;c26.5,38.3,79,47.8,117.3,21.2l243.6-168.9C2288.7,1378.6,2298.2,1326.1,2271.7,1287.8L2271.7,1287.8z" style="fill: rgb(255, 255, 255);" transform="matrix(1, 0, 0, 1, 0, 2.1827872842550278e-11)"/><path d="M 2271.099903 1228.199951 A 30.200001 30.200001 0 0 1 2240.899902 1258.399952 A 30.200001 30.200001 0 0 1 2210.699902 1228.199951 A 30.200001 30.200001 0 0 1 2240.899902 1197.99995 A 30.200001 30.200001 0 0 1 2271.099903 1228.199951 Z" class="st9" style="fill: rgb(247, 188, 195);" transform="matrix(1, 0, 0, 1, 0, 2.1827872842550278e-11)"/><path class="st8" d="M1395.5,1114.1v4.4h108.6l-76.4-27.1C1412,1085.7,1395.5,1097.4,1395.5,1114.1z" style="fill: rgb(255, 255, 255);" transform="matrix(1, 0, 0, 1, 0, 2.1827872842550278e-11)"/><path class="st8" d="M1580.5,1091.3l-76.4,27.1h108.6v-4.4C1612.8,1097.4,1596.3,1085.7,1580.5,1091.3z" style="fill: rgb(255, 255, 255);" transform="matrix(1, 0, 0, 1, 0, 2.1827872842550278e-11)"/><path class="st10" d="M1504.1,1146.3L1504.1,1146.3c-17.8,0-32.2,14.4-32.2,32.2v490.2c0,17.8,14.4,32.2,32.2,32.2l0,0&#10;&#9;&#9;&#9;&#9;&#9;c17.8,0,32.2-14.4,32.2-32.2v-490.2C1536.3,1160.7,1521.9,1146.3,1504.1,1146.3z" style="fill: rgb(100, 96, 128);" transform="matrix(1, 0, 0, 1, 0, 2.9103830456733704e-11)"/><path class="st11" d="M1504.1,1146.3c-17.8,0-32.2,14.4-32.2,32.2v13.4c6,4.9,13.7,7.9,22.1,7.9h20.1c8.4,0,16.1-3,22.1-7.9&#10;&#9;&#9;&#9;&#9;&#9;v-13.4C1536.3,1160.7,1521.9,1146.3,1504.1,1146.3z" style="fill: rgb(80, 78, 109);" transform="matrix(1, 0, 0, 1, 0, 2.9103830456733704e-11)"/><path class="st10" d="M1528.3,1128h-48.4c-11.5,0-20.8,9.3-20.8,20.8v0c0,19.3,15.7,35,35,35h20.1c19.3,0,35-15.7,35-35v0&#10;&#9;&#9;&#9;&#9;&#9;C1549.1,1137.4,1539.8,1128,1528.3,1128z" style="fill: rgb(100, 96, 128);" transform="matrix(1, 0, 0, 1, 0, 2.9103830456733704e-11)"/><path class="st12" d="M2254.9,1377.8l-243.6,168.9c-27.6,19.2-62.7,19.5-90.1,3.8c-10.2-5.4-19.4-13-26.9-22.7L1780.1,1381v33.1&#10;&#9;&#9;&#9;&#9;l109.7,141c7.5,9.7,16.8,17.2,26.9,22.7c27.4,15.7,62.4,15.4,90.1-3.8l243.6-168.9c23.6-16.4,36.3-42.7,36.3-69.4&#10;&#9;&#9;&#9;&#9;C2281.1,1352.2,2270.3,1367.1,2254.9,1377.8z" style="fill: rgb(233, 233, 242);" transform="matrix(1, 0, 0, 1, 0, 2.1827872842550278e-11)"/><path class="st12" d="M1080.2,1550.5c-27.4,15.7-62.4,15.4-90.1-3.8l-243.6-168.9c-15.4-10.7-26.1-25.6-31.8-42.1&#10;&#9;&#9;&#9;&#9;c0,26.7,12.6,53,36.3,69.4l243.6,168.9c27.6,19.2,62.7,19.5,90.1,3.8c10.2-5.4,19.4-13,26.9-22.7l116.5-151V1371l-121,156.8&#10;&#9;&#9;&#9;&#9;C1099.6,1537.5,1090.3,1545.1,1080.2,1550.5z" style="fill: rgb(233, 233, 242);" transform="matrix(1, 0, 0, 1, 0, 2.1827872842550278e-11)"/><path d="M 2375.699951 1282.400024 A 104.5 104.5 0 0 1 2271.199951 1386.900024 A 104.5 104.5 0 0 1 2166.699951 1282.400024 A 104.5 104.5 0 0 1 2271.199951 1177.900024 A 104.5 104.5 0 0 1 2375.699951 1282.400024 Z" class="st6" style="fill: rgb(246, 167, 173);" transform="matrix(1, 0, 0, 1, 0, 2.1827872842550278e-11)"/><path d="M 833.299988 1282.400024 A 104.5 104.5 0 0 1 728.799988 1386.900024 A 104.5 104.5 0 0 1 624.299988 1282.400024 A 104.5 104.5 0 0 1 728.799988 1177.900024 A 104.5 104.5 0 0 1 833.299988 1282.400024 Z" class="st6" style="fill: rgb(246, 167, 173);" transform="matrix(1, 0, 0, 1, 0, 2.1827872842550278e-11)"/><path d="M 789.299976 1228.199951 A 30.200001 30.200001 0 0 1 759.099976 1258.399952 A 30.200001 30.200001 0 0 1 728.899975 1228.199951 A 30.200001 30.200001 0 0 1 759.099976 1197.99995 A 30.200001 30.200001 0 0 1 789.299976 1228.199951 Z" class="st9" style="fill: rgb(247, 188, 195);" transform="matrix(1, 0, 0, 1, 0, 2.1827872842550278e-11)"/><path d="M 2316.899952 1228.199951 A 30.200001 30.200001 0 0 1 2286.699951 1258.399952 A 30.200001 30.200001 0 0 1 2256.49995 1228.199951 A 30.200001 30.200001 0 0 1 2286.699951 1197.99995 A 30.200001 30.200001 0 0 1 2316.899952 1228.199951 Z" class="st9" style="fill: rgb(247, 188, 195);" transform="matrix(1, 0, 0, 1, 0, 2.1827872842550278e-11)"/><path d="M 1439.799999 858.5 A 18.299999 21.9 0 0 1 1421.5 880.4 A 18.299999 21.9 0 0 1 1403.200001 858.5 A 18.299999 21.9 0 0 1 1421.5 836.6 A 18.299999 21.9 0 0 1 1439.799999 858.5 Z" class="st13" style="fill: rgb(178, 84, 98);" transform="matrix(1, 0, 0, 1, 0, 2.9103830456733704e-11)"/><path d="M 1430 849.700012 A 8.5 10.2 0 0 1 1421.5 859.900012 A 8.5 10.2 0 0 1 1413 849.700012 A 8.5 10.2 0 0 1 1421.5 839.500012 A 8.5 10.2 0 0 1 1430 849.700012 Z" class="st8" style="fill: rgb(255, 255, 255);" transform="matrix(1, 0, 0, 1, 0, 2.9103830456733704e-11)"/><path class="st14" d="M1457.6,805.5c-37.2-24.1-73.6-1-75.2,0c-3.5,2.2-4.5,6.9-2.2,10.3c2.2,3.5,6.9,4.5,10.4,2.3&#10;&#9;&#9;&#9;&#9;&#9;c1.2-0.8,30-18.7,58.9,0c1.3,0.8,2.7,1.2,4.1,1.2c2.5,0,4.9-1.2,6.3-3.4C1462,812.4,1461.1,807.8,1457.6,805.5z" style="fill: rgb(196, 112, 128);" transform="matrix(1, 0, 0, 1, 0, 2.9103830456733704e-11)"/><path d="M 1593.299999 858.5 A 18.299999 21.9 0 0 1 1575 880.4 A 18.299999 21.9 0 0 1 1556.700001 858.5 A 18.299999 21.9 0 0 1 1575 836.6 A 18.299999 21.9 0 0 1 1593.299999 858.5 Z" class="st13" style="fill: rgb(178, 84, 98);" transform="matrix(1, 0, 0, 1, 0, 2.9103830456733704e-11)"/><path d="M 1583.5 849.700012 A 8.5 10.2 0 0 1 1575 859.900012 A 8.5 10.2 0 0 1 1566.5 849.700012 A 8.5 10.2 0 0 1 1575 839.500012 A 8.5 10.2 0 0 1 1583.5 849.700012 Z" class="st8" style="fill: rgb(255, 255, 255);" transform="matrix(1, 0, 0, 1, 0, 2.9103830456733704e-11)"/><path class="st14" d="M1614.1,805.5c-1.5-1-38-24.1-75.2,0c-3.5,2.3-4.5,6.9-2.2,10.4c1.4,2.2,3.8,3.4,6.3,3.4&#10;&#9;&#9;&#9;&#9;&#9;c1.4,0,2.8-0.4,4.1-1.2c28.9-18.7,57.7-0.8,58.9,0c3.5,2.2,8.1,1.2,10.4-2.3C1618.6,812.4,1617.6,807.7,1614.1,805.5z" style="fill: rgb(196, 112, 128);" transform="matrix(1, 0, 0, 1, 0, 2.9103830456733704e-11)"/><path d="M 1535.700001 993.900024 A 36.200001 36.200001 0 0 1 1499.5 1030.100025 A 36.200001 36.200001 0 0 1 1463.299999 993.900024 A 36.200001 36.200001 0 0 1 1499.5 957.700024 A 36.200001 36.200001 0 0 1 1535.700001 993.900024 Z" class="st14" style="fill: rgb(196, 112, 128);" transform="matrix(1, 0, 0, 1, 0, 2.1827872842550278e-11)"/><path class="st15" d="M1498.5,571.4c-113,0-204.6,97.3-204.6,217.4c0,35.7,8.1,69.3,22.4,99c-3.7-17-5.6-34.7-5.6-53&#10;&#9;&#9;&#9;&#9;&#9;c0-120.1,84.1-217.4,187.8-217.4s187.8,97.3,187.8,217.4c0,18.3-2,36-5.6,53c14.3-29.7,22.4-63.3,22.4-99&#10;&#9;&#9;&#9;&#9;&#9;C1703.1,668.8,1611.5,571.4,1498.5,571.4z" style="fill: rgb(237, 223, 178);" transform="matrix(1, 0, 0, 1, 0, 2.9103830456733704e-11)"/><path class="st11" d="M1498.5,558.8c-113,0-204.6,97.3-204.6,217.4c0,35.7,8.1,69.3,22.4,99c-3.7-17-5.6-34.7-5.6-53&#10;&#9;&#9;&#9;&#9;&#9;c0-120.1,84.1-217.4,187.8-217.4s187.8,97.3,187.8,217.4c0,18.3-2,36-5.6,53c14.3-29.7,22.4-63.3,22.4-99&#10;&#9;&#9;&#9;&#9;&#9;C1703.1,656.1,1611.5,558.8,1498.5,558.8z" style="fill: rgb(80, 78, 109);" transform="matrix(1, 0, 0, 1, 0, 2.9103830456733704e-11)"/><path class="st10" d="M1301.2,802.5c-33.5,2.2-58.9,31.2-56.6,64.7c2.2,33.5,31.2,58.9,64.7,56.6c2.9-0.2,5.8-0.6,8.6-1.2v-119&#10;&#9;&#9;&#9;&#9;&#9;&#9;C1312.5,802.6,1306.9,802.2,1301.2,802.5z" style="fill: rgb(100, 96, 128);" transform="matrix(1, 0, 0, 1, 0, 3.637978807091713e-11)"/><path class="st11" d="M1324.8,794.5c-3.9,0-7,3.1-7,7v123.4c0,3.9,3.1,7,7,7s7-3.1,7-7V801.5&#10;&#9;&#9;&#9;&#9;&#9;&#9;C1331.8,797.7,1328.7,794.5,1324.8,794.5z" style="fill: rgb(80, 78, 109);" transform="matrix(1, 0, 0, 1, 0, 3.637978807091713e-11)"/><path d="M 1294.400024 836.5 A 22.5 9.3 0 0 1 1271.900024 845.8 A 22.5 9.3 0 0 1 1249.400024 836.5 A 22.5 9.3 0 0 1 1271.900024 827.2 A 22.5 9.3 0 0 1 1294.400024 836.5 Z" transform="matrix(0.5, -0.86599999666214, 0.86599999666214, 0.5, -88.54630543429562, 1519.7306361118463)" class="st16" style="fill: rgb(115, 112, 142);"/><path class="st10" d="M1459.1,990.6h-97c-27.8,0-50.4-22.6-50.4-50.4v-16.6c0-3.6-2.9-6.5-6.5-6.5s-6.5,2.9-6.5,6.5v16.6&#10;&#9;&#9;&#9;&#9;&#9;c0,35,28.4,63.4,63.4,63.4h97c3.6,0,6.5-2.9,6.5-6.5S1462.7,990.6,1459.1,990.6z" style="fill: rgb(100, 96, 128);" transform="matrix(1, 0, 0, 1, 0, 2.9103830456733704e-11)"/><path class="st11" d="M1478.5,984.7h-71c-6.6,0-12,5.4-12,12v0c0,6.6,5.4,12,12,12h71c6.6,0,12-5.4,12-12v0&#10;&#9;&#9;&#9;&#9;&#9;C1490.5,990.1,1485.1,984.7,1478.5,984.7z" style="fill: rgb(80, 78, 109);" transform="matrix(1, 0, 0, 1, 0, 2.9103830456733704e-11)"/><path class="st10" d="M1460,984.7h-38.9c-6.6,0-12,5.4-12,12v0c0,6.6,5.4,12,12,12h38.9c6.6,0,12-5.4,12-12v0&#10;&#9;&#9;&#9;&#9;&#9;C1472,990.1,1466.6,984.7,1460,984.7z" style="fill: rgb(100, 96, 128);" transform="matrix(1, 0, 0, 1, 0, 2.9103830456733704e-11)"/><path class="st10" d="M1695.3,802.5c-5.7-0.4-11.3,0.1-16.6,1.2v119c2.8,0.6,5.6,1,8.6,1.2c33.5,2.2,62.5-23.1,64.7-56.6&#10;&#9;&#9;&#9;&#9;&#9;&#9;C1754.2,833.7,1728.8,804.8,1695.3,802.5z" style="fill: rgb(100, 96, 128);" transform="matrix(1, 0, 0, 1, 0, 3.637978807091713e-11)"/><path class="st11" d="M1671.7,794.5c-3.9,0-7,3.1-7,7v123.4c0,3.9,3.1,7,7,7s7-3.1,7-7V801.5&#10;&#9;&#9;&#9;&#9;&#9;&#9;C1678.7,797.7,1675.6,794.5,1671.7,794.5z" style="fill: rgb(80, 78, 109);" transform="matrix(1, 0, 0, 1, 0, 3.637978807091713e-11)"/><path d="M 1733.999951 836.5 A 9.3 22.5 0 0 1 1724.699951 859 A 9.3 22.5 0 0 1 1715.399951 836.5 A 9.3 22.5 0 0 1 1724.699951 814 A 9.3 22.5 0 0 1 1733.999951 836.5 Z" transform="matrix(0.86599999666214, -0.5, 0.5, 0.86599999666214, -187.2126062873781, 974.4108566764626)" class="st16" style="fill: rgb(115, 112, 142);"/><path class="st8" d="M1499.5,957.7c-16.8,0-31,11.5-35,27h70.1C1530.5,969.2,1516.3,957.7,1499.5,957.7z" style="fill: rgb(255, 255, 255);" transform="matrix(1, 0, 0, 1, 0, 2.1827872842550278e-11)"/><path class="st17" d="M1708.1,1717H968v30.5h740.1c8.4,0,15.3-6.8,15.3-15.3l0,0C1723.3,1723.8,1716.5,1717,1708.1,1717z" style="fill: rgb(209, 200, 213);" transform="matrix(1, 0, 0, 1, 0, 2.1827872842550278e-11)"/><path d="M 968 1717 L 968 1747.5 L 1595.800048828125 1747.5 L 1591.0999755859375 1717 Z" class="st18" style="fill: rgb(183, 173, 188);" transform="matrix(1, 0, 0, 1, 0, 2.1827872842550278e-11)"/><path class="st17" d="M1461.9,1280.4H908.6c-22.4,0-37.8,18.2-34.3,40.6l61.2,397.1c2.6,16.9,17.2,29.4,34.3,29.4h604.6&#10;&#9;&#9;&#9;&#9;l-65.7-426.6C1505.2,1298.6,1484.3,1280.4,1461.9,1280.4z" style="fill: rgb(209, 200, 213);" transform="matrix(1, 0, 0, 1, 0, 2.1827872842550278e-11)"/><path class="st19" d="M1569.7,1717c-560.1,56.5-626.8-325.1-634.4-436.6h-26.7c-22.4,0-37.8,18.2-34.3,40.6l61.2,397.1&#10;&#9;&#9;&#9;&#9;c2.6,16.9,17.2,29.4,34.3,29.4h604.6L1569.7,1717L1569.7,1717z" style="fill: rgb(194, 186, 198);" transform="matrix(1, 0, 0, 1, 0, 2.1827872842550278e-11)"/><path class="st20" d="M1211,1482.2c-22.9,0-37.5,23.2-32.5,51.8c5,28.6,27.6,51.8,50.5,51.8c22.9,0,37.5-23.2,32.5-51.8&#10;&#9;&#9;&#9;&#9;&#9;C1256.5,1505.4,1233.9,1482.2,1211,1482.2z" style="fill: rgb(226, 223, 229);" transform="matrix(1, 0, 0, 1, 0, 2.9103830456733704e-11)"/><path class="st19" d="M1260.3,1528.7c2.4,26.1-11.7,46.5-33.2,46.5s-42.7-20.4-49.4-46.5c0.2,1.7,0.4,3.5,0.7,5.3&#10;&#9;&#9;&#9;&#9;&#9;c5,28.6,27.6,51.8,50.5,51.8c22.9,0,37.5-23.2,32.5-51.8C1261.2,1532.2,1260.8,1530.4,1260.3,1528.7z" style="fill: rgb(194, 186, 198);" transform="matrix(1, 0, 0, 1, 0, 2.9103830456733704e-11)"/><path class="st10" d="M2511,1747.5H470c-22.2,0-40.2,18-40.2,40.2v0c0,22.2,18,40.2,40.2,40.2H2511c22.2,0,40.2-18,40.2-40.2v0&#10;&#9;&#9;&#9;&#9;C2551.1,1765.5,2533.1,1747.5,2511,1747.5z" style="fill: rgb(100, 96, 128);" transform="matrix(1, 0, 0, 1, 0, 2.1827872842550278e-11)"/><path d="M 507.899994 1827.900024 H 2473.099945 V 2000.000031 H 507.899994 V 1827.900024 Z" class="st21" style="fill: rgb(71, 66, 105);" transform="matrix(1, 0, 0, 1, 0, 2.1827872842550278e-11)"/><path class="st22" d="M507.9,1967.1c412.2-163.8,1965.2-70.2,1965.2-70.2v-69.1H507.9V1967.1z" style="fill: rgb(59, 57, 91);" transform="matrix(1, 0, 0, 1, 0, 2.1827872842550278e-11)"/><path class="st8" d="M934,387.4c-116.6,0-211.5,94.9-211.5,211.5c0,116.6,94.9,211.5,211.5,211.5c116.6,0,211.5-94.9,211.5-211.5&#10;&#9;&#9;&#9;&#9;C1145.5,482.3,1050.6,387.4,934,387.4z M934,806.8c-114.6,0-207.8-93.2-207.8-207.8c0-114.6,93.2-207.8,207.8-207.8&#10;&#9;&#9;&#9;&#9;c114.6,0,207.8,93.2,207.8,207.8C1141.8,713.6,1048.6,806.8,934,806.8z" style="fill: rgb(255, 255, 255);" transform="matrix(1, 0, 0, 1, 0, 2.1827872842550278e-11)"/><path d="M 788.0999755859375 682.2000122070312 L 884 653.9000244140625 L 828.2999877929688 636.0999755859375 Z" class="st8" style="fill: rgb(255, 255, 255);" transform="matrix(1, 0, 0, 1, 0, 2.9103830456733704e-11)"/><path class="st8" d="M884,462.1c-53,0-95.9,42.9-95.9,95.9c0,53,42.9,95.9,95.9,95.9c12.6,0,24.6-2.4,35.6-6.8&#10;&#9;&#9;&#9;&#9;&#9;c-0.2-2.5-0.4-5-0.4-7.5c0-37.8,25.7-69.6,60.6-78.8c0-0.9,0-1.8,0-2.7C979.9,505,937,462.1,884,462.1z" style="fill: rgb(255, 255, 255);" transform="matrix(1, 0, 0, 1, 0, 2.9103830456733704e-11)"/><path d="M 845.999975 553.900024 A 11.4 11.4 0 0 1 834.599976 565.300024 A 11.4 11.4 0 0 1 823.199976 553.900024 A 11.4 11.4 0 0 1 834.599976 542.500025 A 11.4 11.4 0 0 1 845.999975 553.900024 Z" class="st23" style="fill: rgb(170, 242, 140);" transform="matrix(1, 0, 0, 1, 0, 3.637978807091713e-11)"/><path d="M 895.4 553.900024 A 11.4 11.4 0 0 1 884 565.300024 A 11.4 11.4 0 0 1 872.6 553.900024 A 11.4 11.4 0 0 1 884 542.500025 A 11.4 11.4 0 0 1 895.4 553.900024 Z" class="st23" style="fill: rgb(170, 242, 140);" transform="matrix(1, 0, 0, 1, 0, 3.637978807091713e-11)"/><path d="M 944.800024 553.900024 A 11.4 11.4 0 0 1 933.400024 565.300024 A 11.4 11.4 0 0 1 922.000025 553.900024 A 11.4 11.4 0 0 1 933.400024 542.500025 A 11.4 11.4 0 0 1 944.800024 553.900024 Z" class="st23" style="fill: rgb(170, 242, 140);" transform="matrix(1, 0, 0, 1, 0, 3.637978807091713e-11)"/><path d="M 1074.999985 639.5 A 74.199997 74.199997 0 0 1 1000.799988 713.699997 A 74.199997 74.199997 0 0 1 926.599991 639.5 A 74.199997 74.199997 0 0 1 1000.799988 565.300003 A 74.199997 74.199997 0 0 1 1074.999985 639.5 Z" class="st8" style="fill: rgb(255, 255, 255);" transform="matrix(1, 0, 0, 1, 0, 2.9103830456733704e-11)"/><path d="M 1000.7999877929688 713.7999877929688 L 1075.0999755859375 735.7000122070312 L 1043.9000244140625 700 Z" class="st8" style="fill: rgb(255, 255, 255);" transform="matrix(1, 0, 0, 1, 0, 2.9103830456733704e-11)"/><path d="M 1050.000049 639.5 A 9.2 9.2 0 0 1 1040.800049 648.7 A 9.2 9.2 0 0 1 1031.600049 639.5 A 9.2 9.2 0 0 1 1040.800049 630.3 A 9.2 9.2 0 0 1 1050.000049 639.5 Z" class="st23" style="fill: rgb(170, 242, 140);" transform="matrix(1, 0, 0, 1, 0, 3.637978807091713e-11)"/><path d="M 1009.999988 639.5 A 9.2 9.2 0 0 1 1000.799988 648.7 A 9.2 9.2 0 0 1 991.599988 639.5 A 9.2 9.2 0 0 1 1000.799988 630.3 A 9.2 9.2 0 0 1 1009.999988 639.5 Z" class="st23" style="fill: rgb(170, 242, 140);" transform="matrix(1, 0, 0, 1, 0, 3.637978807091713e-11)"/><path d="M 970.100024 639.5 A 9.2 9.2 0 0 1 960.900024 648.7 A 9.2 9.2 0 0 1 951.700025 639.5 A 9.2 9.2 0 0 1 960.900024 630.3 A 9.2 9.2 0 0 1 970.100024 639.5 Z" class="st23" style="fill: rgb(170, 242, 140);" transform="matrix(1, 0, 0, 1, 0, 3.637978807091713e-11)"/><path class="st23" d="M992.3,411.6c-3.9,1-5.1,7.5-2.7,14.5s7.4,11.8,11.3,10.8c3.9-1,5.1-7.5,2.7-14.5S996.2,410.6,992.3,411.6z&#10;&#9;&#9;&#9;&#9;" style="fill: rgb(170, 242, 140);" transform="matrix(1, 0, 0, 1, 0, 2.1827872842550278e-11)"/><path class="st23" d="M1002.4,762.3c-4.9,0-12.2,4.1-16.4,9.3c-4.2,5.1-3.6,9.3,1.3,9.3s12.2-4.1,16.4-9.3&#10;&#9;&#9;&#9;&#9;C1007.9,766.4,1007.3,762.3,1002.4,762.3z" style="fill: rgb(170, 242, 140);" transform="matrix(1, 0, 0, 1, 0, 2.1827872842550278e-11)"/><path class="st23" d="M1053.9,453.3c-3.9,1-5.1,7.5-2.7,14.5c2.4,7,7.4,11.8,11.3,10.8c3.9-1,5.1-7.5,2.7-14.5&#10;&#9;&#9;&#9;&#9;C1062.9,457.1,1057.8,452.3,1053.9,453.3z" style="fill: rgb(170, 242, 140);" transform="matrix(1, 0, 0, 1, 0, 2.1827872842550278e-11)"/><path class="st23" d="M934.1,771.5c-4.9,0-12.2,4.1-16.4,9.3s-3.6,9.3,1.3,9.3s12.2-4.1,16.4-9.3&#10;&#9;&#9;&#9;&#9;C939.6,775.7,939,771.6,934.1,771.5z" style="fill: rgb(170, 242, 140);" transform="matrix(1, 0, 0, 1, 0, 2.1827872842550278e-11)"/><path class="st23" d="M1021.3,421.9c-6,1.6-8,11.7-4.3,22.6s11.6,18.4,17.6,16.8s8-11.7,4.3-22.6S1027.3,420.3,1021.3,421.9z" style="fill: rgb(170, 242, 140);" transform="matrix(1, 0, 0, 1, 0, 2.1827872842550278e-11)"/><path class="st23" d="M968.5,766.4c-7.6,0-19,6.5-25.5,14.5c-6.5,8-5.6,14.5,2.1,14.5c7.6,0,19-6.5,25.5-14.5&#10;&#9;&#9;&#9;&#9;S976.1,766.4,968.5,766.4z" style="fill: rgb(170, 242, 140);" transform="matrix(1, 0, 0, 1, 0, 2.1827872842550278e-11)"/><path class="st8" d="M1866.8,130.5c-105,0-190.5,85.5-190.5,190.5c0,105,85.5,190.5,190.5,190.5c105,0,190.5-85.5,190.5-190.5&#10;&#9;&#9;&#9;&#9;C2057.3,215.9,1971.9,130.5,1866.8,130.5z M1866.8,506.5c-102.3,0-185.5-83.2-185.5-185.5s83.2-185.5,185.5-185.5&#10;&#9;&#9;&#9;&#9;c102.3,0,185.5,83.2,185.5,185.5S1969.1,506.5,1866.8,506.5z" style="fill: rgb(255, 255, 255);" transform="matrix(1, 0, 0, 1, 0, 2.1827872842550278e-11)"/><path class="st8" d="M1866.8,167.6c-9,0-17.8,0.8-26.4,2.3c-3.7,7.2-16.5,33.6-25.9,71c3.2-0.5,6.3-0.9,9.5-1.3&#10;&#9;&#9;&#9;&#9;&#9;c30.9-3.5,63-2.4,95.6,3.2c-9.4-38.5-22.6-65.7-26.4-73C1884.7,168.4,1875.8,167.6,1866.8,167.6z" style="fill: rgb(255, 255, 255);" transform="matrix(1, 0, 0, 1, 0, 2.9103830456733704e-11)"/><path class="st8" d="M1914.4,175.1c6.6,14.9,16.3,39.7,23.3,71.3c33.6,7.5,59.7,18,74.1,24.6&#10;&#9;&#9;&#9;&#9;&#9;C1996.3,225.7,1960.1,190,1914.4,175.1z" style="fill: rgb(255, 255, 255);" transform="matrix(1, 0, 0, 1, 0, 2.9103830456733704e-11)"/><path class="st24" d="M1722,270.3c23.6-12.1,48.5-20.8,74.4-26.2c7-30.4,16.3-54.4,22.8-68.9&#10;&#9;&#9;&#9;&#9;&#9;C1773.8,189.9,1737.8,225.3,1722,270.3z" style="fill: rgb(144, 255, 255);" transform="matrix(1, 0, 0, 1, 0, 2.9103830456733704e-11)"/><path class="st8" d="M1719.2,362.9c14.3,50.3,53.6,90.1,103.6,105c-13.3-24.6-22.9-50.6-28.8-77.8&#10;&#9;&#9;&#9;&#9;&#9;C1768,384.4,1742.9,375.3,1719.2,362.9z" style="fill: rgb(255, 255, 255);" transform="matrix(1, 0, 0, 1, 0, 2.9103830456733704e-11)"/><path class="st8" d="M1824,395c-4-0.5-7.9-1-11.9-1.6c5.8,23.9,15.1,48.6,29.2,73.2c1,1.8,1.3,3.8,1,5.8c8,1.3,16.1,2,24.5,2&#10;&#9;&#9;&#9;&#9;&#9;c8.3,0,16.5-0.7,24.5-2c-0.4-1.9-0.1-3.9,1-5.8c14.5-25.3,23.9-50.7,29.7-75.2c-20.9,3.7-41.6,5.6-61.9,5.6&#10;&#9;&#9;&#9;&#9;&#9;C1847.9,397,1835.9,396.4,1824,395z" style="fill: rgb(255, 255, 255);" transform="matrix(1, 0, 0, 1, 0, 2.9103830456733704e-11)"/><path class="st8" d="M1910.8,467.9c50.2-15,89.6-55,103.7-105.6c-13.4,6.3-39.8,17.4-74.5,25.3&#10;&#9;&#9;&#9;&#9;&#9;C1934.2,415.8,1924.4,442.6,1910.8,467.9z" style="fill: rgb(255, 255, 255);" transform="matrix(1, 0, 0, 1, 0, 2.9103830456733704e-11)"/><path class="st8" d="M2016.3,291.9c-0.3-0.2-29.9-16.4-74.9-27.4c5.6,32.6,6.7,64.7,3.2,95.6c-0.4,3.2-0.8,6.4-1.3,9.5&#10;&#9;&#9;&#9;&#9;&#9;c43.9-11,72.6-26.8,73-26.9c0.8-0.5,1.7-0.7,2.5-0.9c0.9-6.8,1.4-13.8,1.4-20.8c0-9.7-0.9-19.2-2.6-28.4&#10;&#9;&#9;&#9;&#9;&#9;C2017.1,292.4,2016.7,292.2,2016.3,291.9z" style="fill: rgb(255, 255, 255);" transform="matrix(1, 0, 0, 1, 0, 2.9103830456733704e-11)"/><path class="st24" d="M1923.5,260.6c-0.7-0.1-1.4-0.3-2.2-0.4c-30-5.6-68.7-8.6-110.8-1.6c-0.3,1.4-0.5,2.8-0.8,4.2&#10;&#9;&#9;&#9;&#9;&#9;c-5.7,30.4-8.7,70-1.2,112.9c42.9,7.5,82.4,4.4,112.9-1.2c1.4-0.3,2.8-0.5,4.2-0.8c7.1-42.3,4-81.3-1.7-111.4&#10;&#9;&#9;&#9;&#9;&#9;C1923.7,261.7,1923.6,261.2,1923.5,260.6z" style="fill: rgb(144, 255, 255);" transform="matrix(1, 0, 0, 1, 0, 2.9103830456733704e-11)"/><path class="st8" d="M1717.5,291.9c-0.5,0.3-0.9,0.5-1.4,0.6c-1.7,9.2-2.6,18.7-2.6,28.4c0,7.1,0.5,14,1.4,20.8&#10;&#9;&#9;&#9;&#9;&#9;c0.9,0.2,1.8,0.5,2.7,1c24.6,14.1,49.3,23.4,73.2,29.2c-0.6-3.9-1.2-7.9-1.6-11.9c-3.6-31.6-2.4-64.5,3.6-97.9&#10;&#9;&#9;&#9;&#9;&#9;C1768.2,268,1742.8,277.4,1717.5,291.9z" style="fill: rgb(255, 255, 255);" transform="matrix(1, 0, 0, 1, 0, 2.9103830456733704e-11)"/><path d="M 1945.699976 146.100006 A 11.1 11.1 0 0 1 1934.599976 157.200006 A 11.1 11.1 0 0 1 1923.499975 146.100006 A 11.1 11.1 0 0 1 1934.599976 135.000006 A 11.1 11.1 0 0 1 1945.699976 146.100006 Z" class="st8" style="fill: rgb(255, 255, 255);" transform="matrix(1, 0, 0, 1, 0, 2.1827872842550278e-11)"/><path d="M 1698.500025 264.5 A 11.1 11.1 0 0 1 1687.400024 275.6 A 11.1 11.1 0 0 1 1676.300024 264.5 A 11.1 11.1 0 0 1 1687.400024 253.4 A 11.1 11.1 0 0 1 1698.500025 264.5 Z" class="st8" style="fill: rgb(255, 255, 255);" transform="matrix(1, 0, 0, 1, 0, 2.1827872842550278e-11)"/><path d="M 1687.399976 297.5 A 7.8 7.8 0 0 1 1679.599976 305.3 A 7.8 7.8 0 0 1 1671.799975 297.5 A 7.8 7.8 0 0 1 1679.599976 289.7 A 7.8 7.8 0 0 1 1687.399976 297.5 Z" class="st8" style="fill: rgb(255, 255, 255);" transform="matrix(1, 0, 0, 1, 0, 2.1827872842550278e-11)"/><path d="M 1891.899976 508.5 A 7.8 7.8 0 0 1 1884.099976 516.3 A 7.8 7.8 0 0 1 1876.299975 508.5 A 7.8 7.8 0 0 1 1884.099976 500.7 A 7.8 7.8 0 0 1 1891.899976 508.5 Z" class="st8" style="fill: rgb(255, 255, 255);" transform="matrix(1, 0, 0, 1, 0, 2.1827872842550278e-11)"/><path d="M 1925.299952 503.600006 A 9.6 9.6 0 0 1 1915.699951 513.200006 A 9.6 9.6 0 0 1 1906.099951 503.600006 A 9.6 9.6 0 0 1 1915.699951 494.000006 A 9.6 9.6 0 0 1 1925.299952 503.600006 Z" class="st8" style="fill: rgb(255, 255, 255);" transform="matrix(1, 0, 0, 1, 0, 2.1827872842550278e-11)"/><path d="M 1957.300049 490.600006 A 13 13 0 0 1 1944.300049 503.600006 A 13 13 0 0 1 1931.300049 490.600006 A 13 13 0 0 1 1944.300049 477.600006 A 13 13 0 0 1 1957.300049 490.600006 Z" class="st8" style="fill: rgb(255, 255, 255);" transform="matrix(1, 0, 0, 1, 0, 2.1827872842550278e-11)"/><path d="M 1980.699976 161.600006 A 15.1 15.1 0 0 1 1965.599976 176.700006 A 15.1 15.1 0 0 1 1950.499975 161.600006 A 15.1 15.1 0 0 1 1965.599976 146.500006 A 15.1 15.1 0 0 1 1980.699976 161.600006 Z" class="st8" style="fill: rgb(255, 255, 255);" transform="matrix(1, 0, 0, 1, 0, 2.1827872842550278e-11)"/><g transform="matrix(1, 0, 0, 1, 0, 2.1827872842550278e-11)">
				<path class="st8" d="M2054.4,925.6c-28.4,7.6-59.4,25.4-87.2,50c-27.8,24.7-49.1,53.3-60.1,80.6c-11.1,27.6-10.2,50.6,2.4,64.8&#10;&#9;&#9;&#9;&#9;&#9;c8.3,9.3,20.9,14.1,36.7,14.1c8.3,0,17.5-1.3,27.4-4c28.4-7.6,59.4-25.4,87.2-50c27.8-24.7,49.1-53.3,60.1-80.6&#10;&#9;&#9;&#9;&#9;&#9;c11.1-27.6,10.2-50.6-2.4-64.8C2105.9,921.5,2083.1,917.9,2054.4,925.6z M2059,1079.2c-56.5,50.1-122.7,68.2-147.5,40.2&#10;&#9;&#9;&#9;&#9;&#9;c-24.8-28,1-91.6,57.5-141.7c38.5-34.1,81.4-53.4,112.7-53.4c14.7,0,26.9,4.2,34.8,13.2C2141.4,965.5,2115.6,1029,2059,1079.2z" style="fill: rgb(255, 255, 255);"/>
				<path class="st8" d="M2109.3,972.5c-27-11.6-62.4-16.7-99.5-14.5c-37.1,2.2-71.5,11.5-97,26.2c-25.8,14.9-39.3,33.5-38.2,52.5&#10;&#9;&#9;&#9;&#9;&#9;c1.1,19,16.8,35.8,44.2,47.5c22.9,9.8,51.8,15,82.6,15c5.6,0,11.2-0.2,16.8-0.5c37.1-2.2,71.5-11.5,97-26.2&#10;&#9;&#9;&#9;&#9;&#9;c25.8-14.9,39.3-33.5,38.2-52.5C2152.3,1001.1,2136.6,984.2,2109.3,972.5z M2018.1,1096.1c-5.6,0.3-11.1,0.5-16.6,0.5&#10;&#9;&#9;&#9;&#9;&#9;c-67.9,0-122.2-25.5-124.3-60c-1.1-17.9,12-35.7,36.9-50c25.1-14.5,59.2-23.7,95.9-25.9c5.6-0.3,11.2-0.5,16.7-0.5&#10;&#9;&#9;&#9;&#9;&#9;c30.5,0,59,5.1,81.6,14.8c26.4,11.3,41.5,27.3,42.6,45.3C2153,1057.5,2093.5,1091.6,2018.1,1096.1z" style="fill: rgb(255, 255, 255);"/>
			</g><path d="M 1924 1018.5999755859375 L 2014 1060.800048828125 L 2104 1018.5999755859375 L 2014 986.2000122070312 Z" class="st12" style="fill: rgb(233, 233, 242);" transform="matrix(1, 0, 0, 1, 0, 2.9103830456733704e-11)"/><path class="st25" d="M2072.8,947.5h-117.6c-4.4,0-7.9,3.5-7.9,7.9v118.9h133.5V955.4C2080.7,951.1,2077.2,947.5,2072.8,947.5z&#10;&#9;&#9;&#9;&#9;&#9;&#9;" style="fill: rgb(73, 196, 255);" transform="matrix(1, 0, 0, 1, 0, 3.637978807091713e-11)"/><path class="st8" d="M2060.1,966.1h-92.2c-1.3,0-2.4,1.1-2.4,2.4v0c0,1.3,1.1,2.4,2.4,2.4h92.2c1.3,0,2.4-1.1,2.4-2.4v0&#10;&#9;&#9;&#9;&#9;&#9;&#9;C2062.5,967.1,2061.4,966.1,2060.1,966.1z" style="fill: rgb(255, 255, 255);" transform="matrix(1, 0, 0, 1, 0, 3.637978807091713e-11)"/><path class="st8" d="M2060.1,980.2h-92.2c-1.3,0-2.4,1.1-2.4,2.4s1.1,2.4,2.4,2.4h92.2c1.3,0,2.4-1.1,2.4-2.4&#10;&#9;&#9;&#9;&#9;&#9;&#9;S2061.4,980.2,2060.1,980.2z" style="fill: rgb(255, 255, 255);" transform="matrix(1, 0, 0, 1, 0, 3.637978807091713e-11)"/><path class="st8" d="M2060.1,994.4h-92.2c-1.3,0-2.4,1.1-2.4,2.4s1.1,2.4,2.4,2.4h92.2c1.3,0,2.4-1.1,2.4-2.4&#10;&#9;&#9;&#9;&#9;&#9;&#9;S2061.4,994.4,2060.1,994.4z" style="fill: rgb(255, 255, 255);" transform="matrix(1, 0, 0, 1, 0, 3.637978807091713e-11)"/><path class="st8" d="M2060.1,1008.6h-92.2c-1.3,0-2.4,1.1-2.4,2.4s1.1,2.4,2.4,2.4h92.2c1.3,0,2.4-1.1,2.4-2.4&#10;&#9;&#9;&#9;&#9;&#9;&#9;S2061.4,1008.6,2060.1,1008.6z" style="fill: rgb(255, 255, 255);" transform="matrix(1, 0, 0, 1, 0, 3.637978807091713e-11)"/><path class="st8" d="M2060.1,1022.7h-92.2c-1.3,0-2.4,1.1-2.4,2.4c0,1.3,1.1,2.4,2.4,2.4h92.2c1.3,0,2.4-1.1,2.4-2.4&#10;&#9;&#9;&#9;&#9;&#9;&#9;C2062.5,1023.8,2061.4,1022.7,2060.1,1022.7z" style="fill: rgb(255, 255, 255);" transform="matrix(1, 0, 0, 1, 0, 3.637978807091713e-11)"/><path class="st8" d="M1924,1018.6v80.1c0,5.8,4.7,10.5,10.5,10.5h79.5h79.5c5.8,0,10.5-4.7,10.5-10.5v-80.1l-90,42.2&#10;&#9;&#9;&#9;&#9;&#9;L1924,1018.6z" style="fill: rgb(255, 255, 255);" transform="matrix(1, 0, 0, 1, 0, 2.9103830456733704e-11)"/><path d="M 1950.700025 1132.699951 A 10.3 5.3 0 0 1 1940.400024 1137.999951 A 10.3 5.3 0 0 1 1930.100024 1132.699951 A 10.3 5.3 0 0 1 1940.400024 1127.399951 A 10.3 5.3 0 0 1 1950.700025 1132.699951 Z" transform="matrix(0.5, -0.86599999666214, 0.86599999666214, 0.5, -10.798600518661743, 2246.7747251622495)" class="st8" style="fill: rgb(255, 255, 255);"/><path d="M 1960.100049 1134.699951 A 6.8 3.5 0 0 1 1953.300049 1138.199951 A 6.8 3.5 0 0 1 1946.500049 1134.699951 A 6.8 3.5 0 0 1 1953.300049 1131.199951 A 6.8 3.5 0 0 1 1960.100049 1134.699951 Z" transform="matrix(0.5, -0.86599999666214, 0.86599999666214, 0.5, -6.038600147920846, 2258.9595399785103)" class="st8" style="fill: rgb(255, 255, 255);"/><path d="M 1930.8 1128.599976 A 6.8 3.5 0 0 1 1924 1132.099976 A 6.8 3.5 0 0 1 1917.2 1128.599976 A 6.8 3.5 0 0 1 1924 1125.099976 A 6.8 3.5 0 0 1 1930.8 1128.599976 Z" transform="matrix(0.5, -0.86599999666214, 0.86599999666214, 0.5, -15.38640068132878, 2230.509832099393)" class="st8" style="fill: rgb(255, 255, 255);"/><path d="M 2104.599951 924 A 9.4 4.8 0 0 1 2095.199951 928.8 A 9.4 4.8 0 0 1 2085.799952 924 A 9.4 4.8 0 0 1 2095.199951 919.2 A 9.4 4.8 0 0 1 2104.599951 924 Z" transform="matrix(0.5, -0.86599999666214, 0.86599999666214, 0.5, 247.33940861640582, 2276.496649876164)" class="st8" style="fill: rgb(255, 255, 255);"/><path d="M 2086.499951 924 A 6.8 3.5 0 0 1 2079.699951 927.5 A 6.8 3.5 0 0 1 2072.899951 924 A 6.8 3.5 0 0 1 2079.699951 920.5 A 6.8 3.5 0 0 1 2086.499951 924 Z" transform="matrix(0.5, -0.86599999666214, 0.86599999666214, 0.5, 239.5897135612281, 2263.06793853845)" class="st8" style="fill: rgb(255, 255, 255);"/><path d="M 2152.100049 999.099976 A 6.8 3.5 0 0 1 2145.300049 1002.599976 A 6.8 3.5 0 0 1 2138.500049 999.099976 A 6.8 3.5 0 0 1 2145.300049 995.599976 A 6.8 3.5 0 0 1 2152.100049 999.099976 Z" transform="matrix(0.5, -0.86599999666214, 0.86599999666214, 0.5, 207.37450264020254, 2357.4522186950708)" class="st8" style="fill: rgb(255, 255, 255);"/><path d="M 2116.100049 930.200012 A 6.8 3.5 0 0 1 2109.300049 933.700012 A 6.8 3.5 0 0 1 2102.500049 930.200012 A 6.8 3.5 0 0 1 2109.300049 926.700012 A 6.8 3.5 0 0 1 2116.100049 930.200012 Z" transform="matrix(0.5, -0.86599999666214, 0.86599999666214, 0.5, 249.12850168730301, 2291.847968693037)" class="st8" style="fill: rgb(255, 255, 255);"/><path class="st8" d="M2021,846.7c-51.1,0-99.1,19.9-135.3,56c-36.1,36.1-56,84.2-56,135.3c0,51.1,19.9,99.1,56,135.3&#10;&#9;&#9;&#9;&#9;c36.1,36.1,84.2,56,135.3,56s99.1-19.9,135.3-56c36.1-36.1,56-84.2,56-135.3c0-51.1-19.9-99.1-56-135.3&#10;&#9;&#9;&#9;&#9;C2120.1,866.6,2072.1,846.7,2021,846.7z M2021,1223.2c-102.1,0-185.2-83.1-185.2-185.2s83.1-185.2,185.2-185.2&#10;&#9;&#9;&#9;&#9;s185.2,83.1,185.2,185.2S2123.1,1223.2,2021,1223.2z" style="fill: rgb(255, 255, 255);" transform="matrix(1, 0, 0, 1, 0, 2.1827872842550278e-11)"/><g transform="matrix(1, 0, 0, 1, 0, 2.1827872842550278e-11)">
				<path class="st8" d="M1505.8,263.3l-41.7-4.1c-2.3-10.3-6.3-19.9-11.8-28.5l26.6-32.4c1-1.2,0.9-3-0.2-4.1l-8.7-8.7l-8.7-8.7&#10;&#9;&#9;&#9;&#9;&#9;c-1.1-1.1-2.9-1.2-4.1-0.2l-32.4,26.6c-8.6-5.5-18.2-9.5-28.5-11.8l-4.1-41.7c-0.2-1.6-1.5-2.8-3-2.8H1377h-12.3&#10;&#9;&#9;&#9;&#9;&#9;c-1.6,0-2.9,1.2-3,2.8l-4.1,41.7c-10.3,2.3-19.9,6.3-28.5,11.8l-32.4-26.6c-1.2-1-3-0.9-4.1,0.2l-8.7,8.7l-8.7,8.7&#10;&#9;&#9;&#9;&#9;&#9;c-1.1,1.1-1.2,2.9-0.2,4.1l26.6,32.4c-5.5,8.6-9.5,18.2-11.8,28.5l-41.7,4.1c-1.6,0.2-2.8,1.5-2.8,3v12.3v12.3&#10;&#9;&#9;&#9;&#9;&#9;c0,1.6,1.2,2.9,2.8,3l41.7,4.1c2.3,10.3,6.3,19.9,11.8,28.5l-26.6,32.4c-1,1.2-0.9,3,0.2,4.1l8.7,8.7l8.7,8.7&#10;&#9;&#9;&#9;&#9;&#9;c1.1,1.1,2.9,1.2,4.1,0.2l32.4-26.6c8.6,5.5,18.2,9.5,28.5,11.8l4.1,41.7c0.2,1.6,1.5,2.8,3,2.8h12.3h12.3c1.6,0,2.9-1.2,3-2.8&#10;&#9;&#9;&#9;&#9;&#9;l4.1-41.7c10.3-2.3,19.9-6.3,28.5-11.8l32.4,26.6c1.2,1,3,0.9,4.1-0.2l8.7-8.7l8.7-8.7c1.1-1.1,1.2-2.9,0.2-4.1l-26.6-32.4&#10;&#9;&#9;&#9;&#9;&#9;c5.5-8.6,9.5-18.2,11.8-28.5l41.7-4.1c1.6-0.2,2.8-1.5,2.8-3v-12.3v-12.3C1508.6,264.8,1507.4,263.5,1505.8,263.3z M1377,347.9&#10;&#9;&#9;&#9;&#9;&#9;c-38.2,0-69.2-31-69.2-69.2c0-38.2,31-69.2,69.2-69.2c38.2,0,69.2,31,69.2,69.2C1446.2,316.9,1415.2,347.9,1377,347.9z" style="fill: rgb(255, 255, 255);"/>
				<path class="st24" d="M1377,221.3c-31.7,0-57.3,25.7-57.3,57.3c0,31.7,25.7,57.3,57.3,57.3c31.7,0,57.3-25.7,57.3-57.3&#10;&#9;&#9;&#9;&#9;&#9;C1434.3,247,1408.7,221.3,1377,221.3z M1377,326.9c-26.7,0-48.3-21.6-48.3-48.3s21.6-48.3,48.3-48.3c26.7,0,48.3,21.6,48.3,48.3&#10;&#9;&#9;&#9;&#9;&#9;S1403.7,326.9,1377,326.9z" style="fill: rgb(144, 255, 255);"/>
			</g><path class="st8" d="M1239.7,356.7c-45.8,4.5-74.3-0.1-78.3-12.6c-4-12.5,16.6-32.7,56.6-55.6c24.1-13.8,53.6-27.7,86.5-40.9&#10;&#9;&#9;&#9;&#9;&#9;l1.5-3.8c-34.1,13.5-64.7,27.9-89.5,42.1c-41.9,24-62.5,45-57.9,59.1c3.4,10.7,20.9,16.3,50.2,16.3c9.3,0,19.7-0.6,31.3-1.7&#10;&#9;&#9;&#9;&#9;&#9;c26.5-2.6,57.2-8,90-15.8l-2.9-2.4C1295.2,349,1265.4,354.1,1239.7,356.7z" style="fill: rgb(255, 255, 255);" transform="matrix(1, 0, 0, 1, 0, 2.9103830456733704e-11)"/><path class="st8" d="M1548.1,180.1c-38.4,3.8-85.4,13.4-135.3,27.5l3.8,2c48.5-13.6,94.3-22.9,131.7-26.6&#10;&#9;&#9;&#9;&#9;&#9;c11.5-1.1,22-1.7,31.2-1.7c27.4,0,44.1,4.9,47.1,14.2c4,12.5-16.6,32.7-56.6,55.6c-32.5,18.6-74.9,37.4-122.1,54.3l-0.4,3.3&#10;&#9;&#9;&#9;&#9;&#9;c47.9-17.1,91-36.2,124-55.1c41.9-24,62.5-45,57.9-59.1C1625.1,180.6,1596.1,175.4,1548.1,180.1z" style="fill: rgb(255, 255, 255);" transform="matrix(1, 0, 0, 1, 0, 2.9103830456733704e-11)"/><path class="st24" d="M1613.4,171.1l-19.2-1.9c-1.1-4.7-2.9-9.2-5.4-13.1l12.3-14.9c0.5-0.6,0.4-1.4-0.1-1.9l-4-4l-4-4&#10;&#9;&#9;&#9;&#9;c-0.5-0.5-1.3-0.6-1.9-0.1l-14.9,12.3c-4-2.5-8.4-4.4-13.1-5.4l-1.9-19.2c-0.1-0.7-0.7-1.3-1.4-1.3h-5.7h-5.7&#10;&#9;&#9;&#9;&#9;c-0.7,0-1.3,0.5-1.4,1.3l-1.9,19.2c-4.7,1.1-9.2,2.9-13.1,5.4l-14.9-12.3c-0.6-0.5-1.4-0.4-1.9,0.1l-4,4l-4,4&#10;&#9;&#9;&#9;&#9;c-0.5,0.5-0.6,1.3-0.1,1.9l12.3,14.9c-2.5,4-4.4,8.4-5.4,13.1l-19.2,1.9c-0.7,0.1-1.3,0.7-1.3,1.4v5.7v5.7c0,0.7,0.5,1.3,1.3,1.4&#10;&#9;&#9;&#9;&#9;l19.2,1.9c1.1,4.7,2.9,9.2,5.4,13.1l-12.3,14.9c-0.5,0.6-0.4,1.4,0.1,1.9l4,4l4,4c0.5,0.5,1.3,0.6,1.9,0.1l14.9-12.3&#10;&#9;&#9;&#9;&#9;c4,2.5,8.4,4.4,13.1,5.4l1.9,19.2c0.1,0.7,0.7,1.3,1.4,1.3h5.7h5.7c0.7,0,1.3-0.5,1.4-1.3l1.9-19.2c4.7-1.1,9.2-2.9,13.1-5.4&#10;&#9;&#9;&#9;&#9;l14.9,12.3c0.6,0.5,1.4,0.4,1.9-0.1l4-4l4-4c0.5-0.5,0.6-1.3,0.1-1.9l-12.3-14.9c2.5-4,4.4-8.4,5.4-13.1l19.2-1.9&#10;&#9;&#9;&#9;&#9;c0.7-0.1,1.3-0.7,1.3-1.4v-5.7v-5.7C1614.7,171.8,1614.1,171.2,1613.4,171.1z M1554,195.8c-9.7,0-17.6-7.9-17.6-17.6&#10;&#9;&#9;&#9;&#9;c0-9.7,7.9-17.6,17.6-17.6c9.7,0,17.6,7.9,17.6,17.6C1571.6,187.9,1563.7,195.8,1554,195.8z" style="fill: rgb(144, 255, 255);" transform="matrix(1, 0, 0, 1, 0, 2.1827872842550278e-11)"/><path d="M 1240.8 382.399994 A 14.8 8.2 0 0 1 1226 390.599994 A 14.8 8.2 0 0 1 1211.2 382.399994 A 14.8 8.2 0 0 1 1226 374.199994 A 14.8 8.2 0 0 1 1240.8 382.399994 Z" transform="matrix(0.44720000028610235, -0.8944000005722047, 0.8944000005722047, 0.44720000028610235, 335.7062172802153, 1307.9747704260226)" class="st24" style="fill: rgb(144, 255, 255);"/><path d="M 1437.600049 160.800003 A 14.8 8.2 0 0 1 1422.800049 169.000003 A 14.8 8.2 0 0 1 1408.000049 160.800003 A 14.8 8.2 0 0 1 1422.800049 152.600003 A 14.8 8.2 0 0 1 1437.600049 160.800003 Z" transform="matrix(0.44720000028610235, -0.8944000005722047, 0.8944000005722047, 0.44720000028610235, 642.6364327262763, 1361.4674478014713)" class="st8" style="fill: rgb(255, 255, 255);"/><path d="M 1424.199976 137.5 A 11.1 6.2 0 0 1 1413.099976 143.7 A 11.1 6.2 0 0 1 1401.999975 137.5 A 11.1 6.2 0 0 1 1413.099976 131.3 A 11.1 6.2 0 0 1 1424.199976 137.5 Z" transform="matrix(0.44720000028610235, -0.8944000005722047, 0.8944000005722047, 0.44720000028610235, 658.0888257649185, 1339.9078768464533)" class="st8" style="fill: rgb(255, 255, 255);"/><path d="M 1255.600024 372.5 A 10.2 5.7 0 0 1 1245.400024 378.2 A 10.2 5.7 0 0 1 1235.200025 372.5 A 10.2 5.7 0 0 1 1245.400024 366.8 A 10.2 5.7 0 0 1 1255.600024 372.5 Z" transform="matrix(0.44720000028610235, -0.8944000005722047, 0.8944000005722047, 0.44720000028610235, 355.24689779421357, 1319.8818752730658)" class="st24" style="fill: rgb(144, 255, 255);"/><path d="M 1270.599976 355.600006 A 8 4.5 0 0 1 1262.599976 360.100006 A 8 4.5 0 0 1 1254.599976 355.600006 A 8 4.5 0 0 1 1262.599976 351.100006 A 8 4.5 0 0 1 1270.599976 355.600006 Z" transform="matrix(0.44720000028610235, -0.8944000005722047, 0.8944000005722047, 0.44720000028610235, 379.92261874445103, 1325.9038481087846)" class="st24" style="fill: rgb(144, 255, 255);"/><path d="M 1098.300003 1061.400024 A 103.300003 103.300003 0 0 1 995 1164.700027 A 103.300003 103.300003 0 0 1 891.699997 1061.400024 A 103.300003 103.300003 0 0 1 995 958.100021 A 103.300003 103.300003 0 0 1 1098.300003 1061.400024 Z" class="st25" style="fill: rgb(73, 196, 255);" transform="matrix(1, 0, 0, 1, 0, 2.1827872842550278e-11)"/><path d="M 1088.300003 1061.400024 A 93.300003 93.300003 0 0 1 995 1154.700027 A 93.300003 93.300003 0 0 1 901.699997 1061.400024 A 93.300003 93.300003 0 0 1 995 968.100021 A 93.300003 93.300003 0 0 1 1088.300003 1061.400024 Z" class="st26" style="fill: rgb(90, 208, 255);" transform="matrix(1, 0, 0, 1, 0, 2.1827872842550278e-11)"/><path class="st8" d="M995,926.5c-74.4,0-134.9,60.5-134.9,134.9s60.5,134.9,134.9,134.9s134.9-60.5,134.9-134.9&#10;&#9;&#9;&#9;&#9;S1069.4,926.5,995,926.5z M995,1192.3c-72.2,0-130.9-58.7-130.9-130.9c0-72.2,58.7-130.9,130.9-130.9&#10;&#9;&#9;&#9;&#9;c72.2,0,130.9,58.7,130.9,130.9C1125.9,1133.6,1067.2,1192.3,995,1192.3z" style="fill: rgb(255, 255, 255);" transform="matrix(1, 0, 0, 1, 0, 2.1827872842550278e-11)"/><path class="st8" d="M1064.3,1058.9h-66.8v-83c0-1.4-1.1-2.5-2.5-2.5c-1.4,0-2.5,1.1-2.5,2.5v88h71.8c1.4,0,2.5-1.1,2.5-2.5&#10;&#9;&#9;&#9;&#9;C1066.8,1060,1065.7,1058.9,1064.3,1058.9z" style="fill: rgb(255, 255, 255);" transform="matrix(1, 0, 0, 1, 0, 2.1827872842550278e-11)"/><path d="M 1001.8 1060.900024 A 6.8 6.8 0 0 1 995 1067.700025 A 6.8 6.8 0 0 1 988.2 1060.900024 A 6.8 6.8 0 0 1 995 1054.100024 A 6.8 6.8 0 0 1 1001.8 1060.900024 Z" class="st8" style="fill: rgb(255, 255, 255);" transform="matrix(1, 0, 0, 1, 0, 2.1827872842550278e-11)"/><path d="M 999.300025 944.299988 A 3.4 7 0 0 1 995.900024 951.299988 A 3.4 7 0 0 1 992.500024 944.299988 A 3.4 7 0 0 1 995.900024 937.299988 A 3.4 7 0 0 1 999.300025 944.299988 Z" class="st8" style="fill: rgb(255, 255, 255);" transform="matrix(1, 0, 0, 1, 0, 2.1827872842550278e-11)"/><path d="M 999.300025 1177.5 A 3.4 7 0 0 1 995.900024 1184.5 A 3.4 7 0 0 1 992.500024 1177.5 A 3.4 7 0 0 1 995.900024 1170.5 A 3.4 7 0 0 1 999.300025 1177.5 Z" class="st8" style="fill: rgb(255, 255, 255);" transform="matrix(1, 0, 0, 1, 0, 2.1827872842550278e-11)"/><path d="M 1119.599976 1060.900024 A 7 3.4 0 0 1 1112.599976 1064.300025 A 7 3.4 0 0 1 1105.599976 1060.900024 A 7 3.4 0 0 1 1112.599976 1057.500024 A 7 3.4 0 0 1 1119.599976 1060.900024 Z" class="st8" style="fill: rgb(255, 255, 255);" transform="matrix(1, 0, 0, 1, 0, 2.1827872842550278e-11)"/><path d="M 886.299988 1060.900024 A 7 3.4 0 0 1 879.299988 1064.300025 A 7 3.4 0 0 1 872.299988 1060.900024 A 7 3.4 0 0 1 879.299988 1057.500024 A 7 3.4 0 0 1 886.299988 1060.900024 Z" class="st8" style="fill: rgb(255, 255, 255);" transform="matrix(1, 0, 0, 1, 0, 2.1827872842550278e-11)"/><path class="st8" d="M898.4,952.3c-3.6,0-4.4,5.3-1.6,11.9s7.9,11.9,11.5,11.9s4.4-5.3,1.6-11.9S902,952.3,898.4,952.3z" style="fill: rgb(255, 255, 255);" transform="matrix(1, 0, 0, 1, 0, 2.1827872842550278e-11)"/><path class="st8" d="M900.1,932.4c-2.4,0-2.8,3.4-1,7.7c1.8,4.3,5.1,7.7,7.5,7.7c2.4,0,2.8-3.4,1-7.7S902.5,932.4,900.1,932.4z" style="fill: rgb(255, 255, 255);" transform="matrix(1, 0, 0, 1, 0, 2.1827872842550278e-11)"/><path class="st8" d="M873.8,936.6c-3.4,0-4.1,5-1.5,11.2c2.6,6.2,7.5,11.2,10.9,11.2c3.4,0,4.1-5,1.5-11.2&#10;&#9;&#9;&#9;&#9;S877.3,936.6,873.8,936.6z" style="fill: rgb(255, 255, 255);" transform="matrix(1, 0, 0, 1, 0, 2.1827872842550278e-11)"/><path class="st8" d="M2156.2,556.4c-35.2,8.9-78.1,27.3-120.7,52s-80.1,52.6-105.4,78.6c-25.8,26.5-35.9,48.2-28.4,61.1&#10;&#9;&#9;&#9;&#9;c4.4,7.6,14.5,11.4,29.5,11.4c10.3,0,23-1.8,37.6-5.5c35.2-8.9,78.1-27.3,120.7-52c42.7-24.6,80.1-52.6,105.4-78.6&#10;&#9;&#9;&#9;&#9;c25.8-26.5,35.9-48.2,28.4-61.1C2215.9,549.5,2192.1,547.4,2156.2,556.4z M2192.3,620.9c-25,25.8-62.2,53.5-104.6,78&#10;&#9;&#9;&#9;&#9;c-42.4,24.5-85,42.8-119.8,51.6c-33.7,8.5-56.7,6.9-63.2-4.2c-6.5-11.2,3.7-31.9,27.9-56.8c25-25.8,62.2-53.5,104.6-78&#10;&#9;&#9;&#9;&#9;c42.4-24.5,85-42.8,119.8-51.6c14.4-3.6,26.8-5.4,36.8-5.4c13.5,0,22.6,3.2,26.3,9.6C2226.7,575.2,2216.5,596,2192.3,620.9z" style="fill: rgb(255, 255, 255);" transform="matrix(1, 0, 0, 1, 0, 2.1827872842550278e-11)"/><path class="st8" d="M2169.2,644.5c-25.5-12.8-60.6-23.9-98.8-31.1c-38.1-7.3-74.8-9.9-103.3-7.3c-29,2.6-46.2,10.3-48.4,21.8&#10;&#9;&#9;&#9;&#9;c-1.3,6.8,2.8,14.3,11.7,22c6.2,5.3,14.7,10.7,25.3,16.1c25.5,12.8,60.6,23.9,98.8,31.1c38.1,7.3,74.8,9.9,103.3,7.3&#10;&#9;&#9;&#9;&#9;c29-2.6,46.2-10.3,48.4-21.8C2208.4,671.1,2195.3,657.5,2169.2,644.5z M2203.5,682c-1.9,10-18.6,17.1-45.9,19.5&#10;&#9;&#9;&#9;&#9;c-28.2,2.5-64.6-0.1-102.5-7.3c-37.9-7.2-72.7-18.2-98-30.9c-24.5-12.3-37.4-25-35.5-35c1.9-10,18.6-17.1,45.9-19.5&#10;&#9;&#9;&#9;&#9;c28.2-2.5,64.6,0.1,102.5,7.3c37.9,7.2,72.7,18.2,98,30.9c10.4,5.2,18.8,10.6,24.8,15.7C2200.8,669.6,2204.6,676.3,2203.5,682z" style="fill: rgb(255, 255, 255);" transform="matrix(1, 0, 0, 1, 0, 2.1827872842550278e-11)"/><path class="st23" d="M2141.1,637c4.1-5.1,6.5-11.8,6.5-19.2c0-15.9-11.5-28.8-25.7-28.8s-25.7,12.9-25.7,28.8&#10;&#9;&#9;&#9;&#9;&#9;c0,7.8,2.8,14.9,7.3,20c-13.8,7.1-23.1,21.5-23.1,38.1v55.6h85.8v-55.6C2166,658.6,2155.8,643.8,2141.1,637z" style="fill: rgb(170, 242, 140);" transform="matrix(1, 0, 0, 1, 0, 2.9103830456733704e-11)"/><path class="st23" d="M2019,637.8c4.5-5.2,7.3-12.3,7.3-20c0-15.9-11.5-28.8-25.7-28.8c-14.2,0-25.7,12.9-25.7,28.8&#10;&#9;&#9;&#9;&#9;&#9;c0,7.4,2.5,14.1,6.5,19.2c-14.7,6.8-24.9,21.7-24.9,38.9v55.6h85.8v-55.6C2042.2,659.3,2032.8,645,2019,637.8z" style="fill: rgb(170, 242, 140);" transform="matrix(1, 0, 0, 1, 0, 2.9103830456733704e-11)"/><path class="st8" d="M2080.4,637c4.1-5.1,6.5-11.8,6.5-19.2c0-15.9-11.5-28.8-25.7-28.8c-14.2,0-25.7,12.9-25.7,28.8&#10;&#9;&#9;&#9;&#9;&#9;c0,7.8,2.8,14.9,7.3,20c-13.8,7.1-23.1,21.5-23.1,38.1v55.6h85.8v-55.6C2105.4,658.6,2095.1,643.8,2080.4,637z" style="fill: rgb(255, 255, 255);" transform="matrix(1, 0, 0, 1, 0, 2.9103830456733704e-11)"/><path class="st8" d="M1938.9,594.4c-4.4,0-6.1,6.3-3.8,14.1c2.3,7.8,7.7,14.1,12.2,14.1c4.4,0,6.1-6.3,3.8-14.1&#10;&#9;&#9;&#9;&#9;C1948.8,600.7,1943.3,594.4,1938.9,594.4z" style="fill: rgb(255, 255, 255);" transform="matrix(1, 0, 0, 1, 0, 2.1827872842550278e-11)"/><path class="st8" d="M2138.3,526.3c-6.3,0-14,6.3-17.3,14.1c-3.3,7.8-0.8,14.1,5.5,14.1c6.3,0,14-6.3,17.3-14.1&#10;&#9;&#9;&#9;&#9;C2147.1,532.6,2144.6,526.3,2138.3,526.3z" style="fill: rgb(255, 255, 255);" transform="matrix(1, 0, 0, 1, 0, 2.1827872842550278e-11)"/><path class="st8" d="M2105.4,546c-3.8,0-8.4,3.8-10.3,8.4c-2,4.6-0.5,8.4,3.3,8.4s8.4-3.8,10.3-8.4&#10;&#9;&#9;&#9;&#9;C2110.6,549.8,2109.2,546,2105.4,546z" style="fill: rgb(255, 255, 255);" transform="matrix(1, 0, 0, 1, 0, 2.1827872842550278e-11)"/><path class="st8" d="M2169.6,523.6c-3.8,0-8.4,3.8-10.3,8.4c-2,4.6-0.5,8.4,3.3,8.4s8.4-3.8,10.3-8.4&#10;&#9;&#9;&#9;&#9;C2174.8,527.3,2173.3,523.6,2169.6,523.6z" style="fill: rgb(255, 255, 255);" transform="matrix(1, 0, 0, 1, 0, 2.1827872842550278e-11)"/><path class="st8" d="M2161.6,738.1h-121.3c-1.7,0-3.1,1.4-3.1,3.1s1.4,3.1,3.1,3.1h121.3c1.7,0,3.1-1.4,3.1-3.1&#10;&#9;&#9;&#9;&#9;S2163.3,738.1,2161.6,738.1z" style="fill: rgb(255, 255, 255);" transform="matrix(1, 0, 0, 1, 0, 2.1827872842550278e-11)"/>
</svg>